<?xml version="1.0" encoding="utf-8"?>
<!-- Generator: Adobe Illustrator 22.0.1, SVG Export Plug-In . SVG Version: 6.00 Build 0)  -->
<svg version="1.1" id="e87ddc62-7528-42a5-8b37-f74ed0351019"
	 xmlns="http://www.w3.org/2000/svg" xmlns:xlink="http://www.w3.org/1999/xlink" x="0px" y="0px" viewBox="0 0 1333 521.5"
	 style="enable-background:new 0 0 1333 521.5;" xml:space="preserve">
<style type="text/css">
	.st0{fill:#009942;}
	.st1{opacity:0.5;fill:#4BCB6F;}
	.st2{fill:#323E48;}
	.st3{fill:#97CAEB;}
	.st4{fill:#FFFFFF;}
	.st5{fill:#EDEDED;}
	.st6{fill:#EBFAFF;}
	.st7{fill:#B9C7D3;}
	.st8{fill:#5C6873;}
	.st9{fill:#C1E5FF;}
	.st10{fill:#DBDBDB;}
	.st11{fill:#8996A2;}
	.st12{opacity:5.000000e-02;fill:#323E48;}
	.st13{opacity:0.2;fill:#FFFFFF;}
	.st14{fill:none;}
	.st15{fill:#4BCB6F;}
	.st16{opacity:0.5;fill:#82FF9E;}
</style>
<title>software engineer</title>
<g>
	<path class="st0" d="M975.7,314.5c9.1-4.5,26.6-11.4,47.8-8.3c27.1,4,57.5,23.8,62.1,52c1.5,8.8,0.1,16.5-1.4,21.6
		c-8.3-1.2-35.8-4-62.6,12.9c-15.9,10-24.9,22.8-29.4,30.4c-5,1.6-8.7,1.2-11.5,0C956.2,412.6,973.4,325.7,975.7,314.5z"/>
	<path class="st0" d="M280.1,366.5c-10.3,1.9-27,6.6-43.7,18.9c-30.3,22.3-39.1,54-41.4,63.9c-13.8-10.6-25.3-11.6-30.8-11.5
		c-28,0.5-56.5,31.4-64.4,77.7c60.4,0,120.8,0,181.3,0C280.7,465.9,280.4,416.2,280.1,366.5z"/>
	<circle class="st1" cx="141.6" cy="481.5" r="12.2"/>
	<circle class="st1" cx="203.2" cy="474.2" r="2.1"/>
	<circle class="st1" cx="233.6" cy="426.3" r="13.8"/>
	<polygon class="st2" points="251.3,209.4 279,209.4 279,181.1 	"/>
	<path class="st3" d="M276.4,184.4"/>
	<polygon class="st4" points="276.4,515.6 276.4,184.4 421.8,39 594.7,211 594.7,515.6 	"/>
	<rect x="594.7" y="211" class="st5" width="395.6" height="304.5"/>
	<rect x="276.4" y="458.8" class="st6" width="86.1" height="56.8"/>
	<rect x="507.1" y="458.8" class="st6" width="87.6" height="56.8"/>
	<rect x="594.7" y="458.8" class="st7" width="395.6" height="56.8"/>
	<g>
		<rect x="395.7" y="282" class="st2" width="111.4" height="233.6"/>
		<rect x="364" y="282" class="st8" width="31.7" height="233.6"/>
	</g>
	<rect x="660.1" y="272.9" class="st2" width="97.3" height="97.3"/>
	<rect x="669.4" y="282.3" class="st9" width="78.6" height="78.6"/>
	<rect x="825.7" y="272.9" class="st2" width="97.3" height="97.3"/>
	<rect x="835" y="282.3" class="st9" width="78.6" height="78.6"/>
	<rect x="825.7" y="380.2" class="st10" width="109.7" height="24.4"/>
	<rect x="659.6" y="380.2" class="st10" width="109.7" height="24.4"/>
	<path class="st5" d="M322,418.5h-35.1c-0.5,0-0.9-0.4-0.9-0.9V406c0-0.5,0.4-0.9,0.9-0.9H322c0.5,0,0.9,0.4,0.9,0.9v11.6
		C322.9,418.1,322.5,418.5,322,418.5z"/>
	<path class="st5" d="M546,388.6h-35.1c-0.5,0-0.9-0.4-0.9-0.9v-11.6c0-0.5,0.4-0.9,0.9-0.9H546c0.5,0,0.9,0.4,0.9,0.9v11.6
		C546.9,388.2,546.5,388.6,546,388.6z"/>
	<path class="st5" d="M564.4,331.1h-35.1c-0.5,0-0.9-0.4-0.9-0.9v-11.6c0-0.5,0.4-0.9,0.9-0.9h35.1c0.5,0,0.9,0.4,0.9,0.9v11.6
		C565.3,330.7,564.9,331.1,564.4,331.1z"/>
	<path class="st10" d="M668.6,437.1h-35.1c-0.5,0-0.9-0.4-0.9-0.9v-11.6c0-0.5,0.4-0.9,0.9-0.9h35.1c0.5,0,0.9,0.4,0.9,0.9v11.6
		C669.4,436.8,669,437.1,668.6,437.1z"/>
	<path class="st10" d="M866.3,437.1h-35.1c-0.5,0-0.9-0.4-0.9-0.9v-11.6c0-0.5,0.4-0.9,0.9-0.9h35.1c0.5,0,0.9,0.4,0.9,0.9v11.6
		C867.2,436.8,866.8,437.1,866.3,437.1z"/>
	<path class="st10" d="M976.4,262.6h-35.1c-0.5,0-0.9-0.4-0.9-0.9v-11.6c0-0.5,0.4-0.9,0.9-0.9l35.1,0c0.5,0,0.9,0.4,0.9,0.9v11.6
		C977.3,262.2,976.9,262.6,976.4,262.6z"/>
	<rect x="660.1" y="370.2" class="st7" width="20" height="10"/>
	<rect x="680.1" y="370.2" class="st11" width="109.7" height="10"/>
	<rect x="825.7" y="370.2" class="st7" width="20" height="10"/>
	<rect x="845.7" y="370.2" class="st11" width="109.7" height="10"/>
	<polyline class="st12" points="276.4,215 422.1,69.2 595.4,242.6 990.4,242.6 990.4,201.8 596.9,201.8 424.5,29.4 276.4,179.3 	"/>
	<polygon class="st8" points="276.4,184.4 251.3,209.4 251.3,171.9 423.3,0 595,171.7 595,211 421.8,39 	"/>
	<polygon class="st2" points="1005.7,172.5 833.3,0 423.3,0 595,171.7 	"/>
	<polygon class="st13" points="741.1,272.9 662,352.1 662,370.2 675.6,370.2 757.7,288.1 757.7,272.9 	"/>
	<polygon class="st13" points="687,370.2 758.2,299 758.2,370.2 	"/>
	<polygon class="st13" points="904.9,272.9 825.7,352.1 825.7,370.2 839.3,370.2 921.4,288.1 921.4,272.9 	"/>
	<polygon class="st13" points="850.7,370.2 921.9,299 921.9,370.2 	"/>
	<polyline class="st11" points="595,171.7 1005.7,171.7 1005.7,211 595,211 	"/>
	<rect x="364" y="302.9" class="st7" width="143.2" height="8.5"/>
	<rect x="364" y="315.4" class="st7" width="143.2" height="8.5"/>
	<rect x="364" y="311.5" class="st7" width="143.2" height="3.9"/>
	<rect x="364" y="310.8" class="st11" width="143.2" height="1.2"/>
	<rect x="364" y="314.8" class="st11" width="143.2" height="1.2"/>
	<rect x="364" y="282" class="st7" width="143.2" height="8.5"/>
	<rect x="364" y="294.4" class="st7" width="143.2" height="8.5"/>
	<rect x="364" y="290.5" class="st7" width="143.2" height="3.9"/>
	<rect x="364" y="289.9" class="st11" width="143.2" height="1.2"/>
	<rect x="364" y="293.8" class="st11" width="143.2" height="1.2"/>
	<path class="st8" d="M436.2,321h-1.4c-0.1,0-0.1,0-0.1,0.1v1.4c0,0.1,0,0.1,0.1,0.1h1.4c0.1,0,0.1,0,0.1-0.1L436.2,321
		C436.3,321,436.3,321,436.2,321z"/>
	<rect x="431.3" y="321.7" class="st11" width="8.5" height="4.3"/>
	<rect x="439.8" y="321.7" class="st8" width="0.7" height="4.3"/>
	<line class="st14" x1="251.3" y1="515.6" x2="1259" y2="515.6"/>
	<path class="st15" d="M924.6,515.4c-8.4-15-8-26.9-7.4-32.7c3.3-27.8,32.6-52.4,73.1-58c15.7-29.1,45.2-47.6,76.8-47.8
		c38.6-0.2,74.1,26.9,85.6,66.7c3,0.3,26.6,3.4,40.5,25.3c13.9,21.9,6.5,44.5,5.5,47.4C1107.4,516.1,1016,515.7,924.6,515.4z"/>
	<circle class="st16" cx="972.9" cy="484.3" r="14.5"/>
	<circle class="st16" cx="1059.2" cy="428.1" r="22.6"/>
	<circle class="st16" cx="1116.4" cy="478.8" r="5.3"/>
	<g>
		<path class="st0" d="M1327.1,521.5H5.9c-3.3,0-5.9-2.6-5.9-5.9c0-3.3,2.6-5.9,5.9-5.9h1321.2c3.3,0,5.9,2.6,5.9,5.9
			C1333,518.8,1330.4,521.5,1327.1,521.5z"/>
	</g>
	<circle class="st8" cx="327" cy="284.9" r="7.6"/>
	<path class="st7" d="M252.9,289.4v-9.2c0-0.5,0.4-0.9,0.9-0.9h74.7c0.5,0,0.9,0.4,0.9,0.9l0,9.2c0,0.5-0.4,0.9-0.9,0.9h-74.7
		C253.3,290.4,252.9,290,252.9,289.4z"/>
	<path class="st2" d="M321,358.8h-62.4c-0.3,0-0.6-0.3-0.6-0.6v-78.4c0-0.3,0.3-0.6,0.6-0.6H321c0.3,0,0.6,0.3,0.6,0.6v78.4
		C321.6,358.6,321.3,358.8,321,358.8z"/>
	<rect x="364" y="300.4" class="st11" width="143.2" height="1.2"/>
	<rect x="364" y="304.3" class="st11" width="143.2" height="1.2"/>
</g>
</svg>
